<?xml version="1.0" encoding="utf-8"?>
<!-- Generator: Adobe Illustrator 25.0.1, SVG Export Plug-In . SVG Version: 6.00 Build 0)  -->
<svg version="1.1" id="Layer_1" xmlns="http://www.w3.org/2000/svg" xmlns:xlink="http://www.w3.org/1999/xlink" x="0px" y="0px"
	 viewBox="0 0 72 66" style="enable-background:new 0 0 72 66;" xml:space="preserve">
<style type="text/css">
	.st0{fill-rule:evenodd;clip-rule:evenodd;fill:#2BB5E9;}
</style>
<path class="st0" d="M63.1,28.9L56,33l7.1,4.1c1.8,1,2.4,3.3,1.4,5.1s-3.3,2.4-5.1,1.4l-12.7-7.3c-0.8-0.5-1.4-1.3-1.7-2.1
	c-0.1-0.4-0.2-0.8-0.2-1.2c0-0.3,0.1-0.6,0.1-0.9c0.3-0.9,0.9-1.7,1.7-2.2l12.7-7.3c1.8-1,4.1-0.4,5.1,1.4
	C65.6,25.6,64.9,27.9,63.1,28.9z M56.4,48.7l-12.7-7.3C43,41,42.2,40.9,41.5,41c-1.9,0.1-3.5,1.8-3.5,3.7v14.6
	c0,2.1,1.7,3.7,3.7,3.7c2.1,0,3.8-1.7,3.8-3.7v-8.2l7.1,4.1c1.8,1,4.1,0.4,5.1-1.4C58.8,52.1,58.2,49.8,56.4,48.7z M41.7,34.4
	l-5.3,5.3C36.3,39.8,36,40,35.8,40h-0.4h-0.8h-0.4c-0.2,0-0.5-0.1-0.7-0.3l-5.3-5.3C28.1,34.3,28,34,28,33.8v-0.4v-0.8v-0.4
	c0-0.2,0.1-0.5,0.3-0.7l5.3-5.3c0.2-0.2,0.5-0.3,0.7-0.3h0.4h0.8h0.4c0.2,0,0.5,0.1,0.7,0.3l5.3,5.3c0.2,0.2,0.3,0.4,0.3,0.7v0.4
	v0.8v0.4C42,34,41.9,34.3,41.7,34.4z M37.5,33c0-0.2-0.1-0.5-0.3-0.7l-1.5-1.5c-0.2-0.2-0.4-0.3-0.7-0.3l0,0c-0.2,0-0.5,0.1-0.7,0.3
	l-1.5,1.5c-0.2,0.2-0.3,0.5-0.3,0.7l0,0c0,0.2,0.1,0.5,0.3,0.7l1.5,1.5c0.2,0.2,0.4,0.3,0.7,0.3l0,0c0.2,0,0.5-0.1,0.7-0.3l1.5-1.5
	C37.4,33.5,37.5,33.2,37.5,33L37.5,33z M13.6,17.2l12.7,7.3c0.7,0.4,1.4,0.5,2.2,0.5c1.9-0.1,3.5-1.8,3.5-3.7V6.7
	C32,4.6,30.3,3,28.3,3c-2.1,0-3.8,1.7-3.8,3.7v8.2l-7.1-4.1c-1.8-1-4.1-0.4-5.1,1.4C11.2,13.9,11.8,16.2,13.6,17.2z M41.5,25
	c0.7,0.1,1.5-0.1,2.2-0.5l12.7-7.3c1.8-1,2.4-3.3,1.4-5.1s-3.3-2.4-5.1-1.4l-7.1,4.1V6.7c0-2.1-1.7-3.7-3.8-3.7
	C39.7,3,38,4.6,38,6.7v14.6C38,23.3,39.6,24.9,41.5,25z M28.5,41c-0.7-0.1-1.5,0.1-2.2,0.5l-12.7,7.3c-1.8,1-2.4,3.3-1.4,5.1
	s3.3,2.4,5.1,1.4l7.1-4.1v8.2c0,2.1,1.7,3.7,3.8,3.7s3.7-1.7,3.7-3.7V44.7C31.9,42.7,30.4,41.1,28.5,41z M25,34.1
	c0.1-0.4,0.2-0.8,0.2-1.2c0-0.3-0.1-0.6-0.1-0.9c-0.3-0.9-0.8-1.7-1.7-2.2l-12.8-7.3c-1.8-1-4.1-0.4-5.1,1.4S5.1,28,6.9,29l7.1,4.1
	l-7.1,4.1c-1.8,1-2.4,3.3-1.4,5.1s3.3,2.4,5.1,1.4l12.7-7.3C24.2,35.7,24.8,35,25,34.1z M65.2,9.8h-0.6v0.7h0.6
	c0.3,0,0.4-0.1,0.4-0.3C65.7,10,65.5,9.8,65.2,9.8z M63.9,9.2h1.3c0.7,0,1.2,0.4,1.2,1c0,0.4-0.2,0.6-0.5,0.8l0.5,0.7v0.1h-0.7
	l-0.5-0.7h-0.6v0.7h-0.7V9.2z M67.5,10.6c0-1.4-1-2.5-2.4-2.5s-2.4,1-2.4,2.5c0,1.4,1,2.5,2.4,2.5C66.6,13.1,67.5,12,67.5,10.6z
	 M68.1,10.6c0,1.7-1.1,3.1-3,3.1s-3-1.4-3-3.1s1.1-3.1,3-3.1C67,7.5,68.1,8.9,68.1,10.6z"/>
</svg>
